<svg width="32" height="31" viewBox="0 0 32 31" fill="none" xmlns="http://www.w3.org/2000/svg">
<g clip-path="url(#clip0_2_130524)">
<path d="M21.6708 14.4064H21.1982C20.5785 14.4064 19.99 14.217 19.5414 13.8708C18.7403 13.2505 17.4697 12.5122 15.9988 12.5122C14.5278 12.5122 13.2596 13.2509 12.4537 13.8708C12.0056 14.217 11.4171 14.4064 10.7994 14.4064H10.3267C10.076 14.4064 9.83552 14.5062 9.65823 14.6838C9.48095 14.8614 9.38135 15.1023 9.38135 15.3535C9.38135 15.6047 9.48095 15.8456 9.65823 16.0232C9.83552 16.2008 10.076 16.3006 10.3267 16.3006H10.7994C11.419 16.3006 12.0075 16.49 12.4566 16.8366C13.2601 17.456 14.5297 18.1947 16.0016 18.1947C17.4735 18.1947 18.7431 17.456 19.5466 16.8366C19.9919 16.49 20.5804 16.3006 21.1982 16.3006H21.6708C21.9215 16.3006 22.162 16.2008 22.3393 16.0232C22.5166 15.8456 22.6162 15.6047 22.6162 15.3535C22.6162 15.1023 22.5166 14.8614 22.3393 14.6838C22.162 14.5062 21.9215 14.4064 21.6708 14.4064ZM13.6316 15.3535C14.2026 14.9164 15.0723 14.4064 15.9988 14.4064C16.9252 14.4064 17.7949 14.9169 18.3659 15.3535C17.7949 15.7896 16.9252 16.3006 15.9988 16.3006C15.0723 16.3006 14.2026 15.7901 13.6316 15.3535V15.3535Z" fill="#F9F9F9"/>
<path d="M7.3212 20.1614C7.61829 20.4789 7.93667 20.7757 8.2741 21.0497C9.00583 21.645 9.79797 22.1617 10.6375 22.5911C12.2984 23.4363 14.1351 23.8768 15.998 23.8768C17.861 23.8768 19.6976 23.4363 21.3586 22.5911C22.6906 21.9154 23.9455 20.9773 25.0885 19.8029C27.0193 17.8187 27.9675 15.8426 28.0072 15.7593C28.0962 15.5715 28.121 15.3596 28.0779 15.1563C28.0348 14.9529 27.926 14.7695 27.7685 14.6342C27.7515 14.6195 26.0376 13.1463 24.0127 11.2852C23.6818 10.9755 23.3859 10.5991 23.0754 10.2008C22.5039 9.46872 21.8563 8.63813 20.8259 8.09402L20.8117 8.08692C19.9188 7.63394 18.9033 7.48323 17.9176 7.65741C17.2287 7.77469 16.5738 8.04171 15.999 8.43971C15.4239 8.04159 14.7687 7.77456 14.0795 7.65741C13.0938 7.4832 12.0782 7.6339 11.1853 8.08692L11.1716 8.09402C10.1407 8.63907 9.49312 9.4673 8.92166 10.2008C8.61112 10.5996 8.31712 10.9755 7.98435 11.2852C5.96084 13.1449 4.24599 14.6195 4.22945 14.6342C4.07192 14.7695 3.96321 14.9529 3.92007 15.1563C3.87693 15.3596 3.90177 15.5715 3.99075 15.7593C4.01769 15.8161 4.46862 16.7561 5.36717 17.9779C5.59975 18.2938 5.8512 18.5954 6.12014 18.8809L7.3212 20.1614ZM23.695 18.522C21.4418 20.8182 18.853 21.9831 15.999 21.9831C13.145 21.9831 10.5562 20.8182 8.30293 18.522C7.43448 17.6306 6.67463 16.6392 6.03931 15.5685C6.71948 14.9742 7.92574 13.9111 9.26435 12.6798L9.26813 12.6765C9.71292 12.2631 10.0679 11.808 10.4115 11.3681C10.9083 10.7317 11.3777 10.1298 12.047 9.77369C13.1119 9.23716 14.4614 9.46967 15.3306 10.3419C15.5079 10.5195 15.7483 10.6192 15.999 10.6192C16.2497 10.6192 16.4901 10.5195 16.6673 10.3419C17.5371 9.47109 18.8861 9.23858 19.9515 9.77369C20.6203 10.1298 21.0901 10.7317 21.5869 11.3681C21.9301 11.808 22.2855 12.2631 22.7298 12.6765L22.7336 12.6798C24.0722 13.9111 25.2785 14.9746 25.9591 15.5685C25.3238 16.6393 24.5638 17.6308 23.695 18.522V18.522Z" fill="#F9F9F9"/>
</g>
<defs>
<clipPath id="clip0_2_130524">
<rect width="24.2008" height="16.289" fill="white" transform="translate(3.89844 7.58789)"/>
</clipPath>
</defs>
</svg>
