<svg width="32" height="32" viewBox="0 0 32 32" fill="none" xmlns="http://www.w3.org/2000/svg">
<path d="M11.144 25.1354L9.9106 23.2022C9.86867 23.1366 8.88141 21.5687 8.61645 19.368C8.3686 17.3094 8.72012 14.2946 11.8026 11.623C15.3688 8.53211 15.8701 4.35875 15.8747 4.31698L16.1281 2.03784L17.3616 3.97102C17.4035 4.0367 18.3907 5.60455 18.6557 7.80522C18.9036 9.86387 18.552 12.8786 15.4695 15.5503C11.9033 18.6412 11.402 22.8145 11.3974 22.8563L11.144 25.1354ZM16.8549 6.9702C16.2478 8.65822 15.079 10.9256 12.8629 12.8464C10.8362 14.6029 9.94606 16.7125 10.217 19.1165C10.2605 19.5028 10.3317 19.8676 10.4173 20.203C11.0244 18.515 12.1931 16.2476 14.4093 14.3269C16.436 12.5703 17.3262 10.4607 17.0552 8.05669C17.0117 7.67042 16.9405 7.30563 16.8549 6.9702Z" fill="#F9F9F9"/>
<path d="M16.9373 29.9618L15.7141 28.0474C15.6787 27.9918 14.8433 26.6653 14.6198 24.8087C14.4102 23.0675 14.7066 20.5185 17.3098 18.2623C20.2077 15.7507 20.6379 12.3219 20.6419 12.2876L20.9053 10.0293L22.1285 11.9438C22.1639 11.9993 22.9993 13.3259 23.2228 15.1825C23.4325 16.9236 23.1359 19.4727 20.5328 21.7289C17.635 24.2405 17.2048 27.6693 17.2008 27.7036L16.9373 29.9618ZM21.5604 14.9743C21.0138 16.3342 20.0505 18.0292 18.3701 19.4857C16.7114 20.9233 15.9904 22.6492 16.2271 24.6151C16.2432 24.7488 16.2633 24.8792 16.2867 25.0059C16.834 23.648 17.7966 21.9581 19.4725 20.5056C21.6502 18.6182 21.8404 16.5075 21.5604 14.9743Z" fill="#F9F9F9"/>
</svg>
