<svg width="18" height="17" viewBox="0 0 18 17" fill="none" xmlns="http://www.w3.org/2000/svg">
<path d="M1.0819 9.76346C1.15555 9.77542 1.23009 9.78093 1.30467 9.77996L14.0033 9.77997L13.7264 9.90875C13.4558 10.0369 13.2095 10.2112 12.9988 10.4239L9.43773 13.9849C8.96874 14.4326 8.88994 15.1528 9.25099 15.6914C9.6712 16.2653 10.4771 16.3899 11.051 15.9696C11.0973 15.9357 11.1414 15.8987 11.1828 15.8588L17.6223 9.41936C18.1255 8.91668 18.126 8.10124 17.6233 7.598C17.623 7.59768 17.6226 7.59731 17.6223 7.59699L11.1828 1.15754C10.6792 0.655304 9.86374 0.656431 9.36147 1.16008C9.32195 1.19972 9.28504 1.2419 9.25099 1.28633C8.88994 1.82487 8.96874 2.54508 9.43773 2.99278L12.9923 6.56024C13.1813 6.7494 13.3985 6.90801 13.6363 7.03032L14.0226 7.20419L1.37554 7.20418C0.717631 7.17975 0.140415 7.63933 0.0168174 8.28601C-0.0970403 8.98811 0.379802 9.64957 1.0819 9.76346Z" fill="#e600ff"/>
</svg>
