<svg width="35" height="32" viewBox="0 0 35 32" fill="none" xmlns="http://www.w3.org/2000/svg">
<path d="M2.10368 18.9907C2.24688 19.0148 2.39182 19.0259 2.53683 19.0239L27.2286 19.0239L26.6902 19.2835C26.164 19.5417 25.6852 19.8931 25.2753 20.3217L18.3511 27.4985C17.4392 28.4008 17.286 29.8523 17.988 30.9376C18.8051 32.0942 20.3721 32.3453 21.488 31.4985C21.5782 31.43 21.6638 31.3554 21.7444 31.2751L34.2655 18.2972C35.2441 17.2841 35.2449 15.6407 34.2675 14.6265C34.2669 14.6258 34.2662 14.6251 34.2655 14.6244L21.7444 1.64655C20.7651 0.634356 19.1795 0.636626 18.2028 1.65166C18.126 1.73155 18.0542 1.81656 17.988 1.90611C17.286 2.99146 17.4392 4.44296 18.3511 5.34525L25.2628 12.535C25.6302 12.9162 26.0527 13.2359 26.5149 13.4824L27.2662 13.8328L2.67464 13.8328C1.39537 13.7836 0.273 14.7098 0.0326743 16.0131C-0.188716 17.4281 0.738477 18.7611 2.10368 18.9907Z" fill="#e600ff"/>
</svg>
