<svg width="35" height="32" viewBox="0 0 35 32" fill="none" xmlns="http://www.w3.org/2000/svg">
<path d="M32.8963 13.0093C32.7531 12.9852 32.6082 12.9741 32.4632 12.9761L7.77136 12.9761L8.30977 12.7165C8.83605 12.4583 9.31483 12.1069 9.72466 11.6783L16.6489 4.50149C17.5608 3.5992 17.714 2.14771 17.012 1.06235C16.1949 -0.0942212 14.6279 -0.345343 13.512 0.501545C13.4218 0.570004 13.3362 0.644626 13.2556 0.724927L0.734464 13.7028C-0.244064 14.7159 -0.244925 16.3593 0.732508 17.3735C0.733134 17.3742 0.733838 17.3749 0.734464 17.3756L13.2556 30.3534C14.2349 31.3656 15.8205 31.3634 16.7972 30.3483C16.874 30.2684 16.9458 30.1834 17.012 30.0939C17.714 29.0085 17.5608 27.557 16.6489 26.6548L9.73718 19.465C9.36976 19.0838 8.94733 18.7641 8.48507 18.5176L7.73379 18.1672L32.3254 18.1672C33.6046 18.2164 34.727 17.2902 34.9673 15.9869C35.1887 14.5719 34.2615 13.2389 32.8963 13.0093Z" fill="#e600ff"/>
</svg>
