<svg width="25" height="25" viewBox="0 0 25 25" fill="none" xmlns="http://www.w3.org/2000/svg">
<g id="004-instagram">
<path id="Shape" fill-rule="evenodd" clip-rule="evenodd" d="M7.65625 0H16.8438C21.0715 0 24.5 3.42847 24.5 7.65625V16.8438C24.5 21.0715 21.0715 24.5 16.8438 24.5H7.65625C3.42847 24.5 0 21.0715 0 16.8438V7.65625C0 3.42847 3.42847 0 7.65625 0ZM16.8438 22.2031C19.7991 22.2031 22.2031 19.7991 22.2031 16.8438V7.65625C22.2031 4.70094 19.7991 2.29688 16.8438 2.29688H7.65625C4.70094 2.29688 2.29688 4.70094 2.29688 7.65625V16.8438C2.29688 19.7991 4.70094 22.2031 7.65625 22.2031H16.8438Z" fill="#e600ff"/>
<path id="Shape_2" fill-rule="evenodd" clip-rule="evenodd" d="M6.125 12.25C6.125 8.86747 8.86747 6.125 12.25 6.125C15.6325 6.125 18.375 8.86747 18.375 12.25C18.375 15.6325 15.6325 18.375 12.25 18.375C8.86747 18.375 6.125 15.6325 6.125 12.25ZM8.42188 12.25C8.42188 14.3601 10.1399 16.0781 12.25 16.0781C14.3601 16.0781 16.0781 14.3601 16.0781 12.25C16.0781 10.1384 14.3601 8.42188 12.25 8.42188C10.1399 8.42188 8.42188 10.1384 8.42188 12.25Z" fill="#e600ff"/>
<ellipse id="Oval" cx="18.8345" cy="5.66577" rx="0.816156" ry="0.816156" fill="#e600ff"/>
</g>
</svg>
