<svg width="127" height="73" viewBox="0 0 127 73" fill="none" xmlns="http://www.w3.org/2000/svg">
<g clip-path="url(#clip0_2_130567)">
<rect y="0.911377" width="51" height="72" fill="#F9F9F9"/>
<path d="M5.21033 9.32539C5.19989 9.78016 5.02601 10.2157 4.721 10.551C4.4242 10.8143 4.04659 10.9669 3.65146 10.983C2.84756 11.0136 2.286 10.382 2.09026 9.44044C2.04336 9.18251 2.01996 8.9208 2.02036 8.65858C2.01651 8.37053 2.04544 8.08299 2.10657 7.80158C2.3093 6.97041 2.74271 6.31768 3.68176 6.31768C4.03855 6.30394 4.38704 6.42827 4.65576 6.66518C4.83577 6.81822 4.97915 7.01026 5.07517 7.22696C5.1712 7.44365 5.21741 7.67941 5.21033 7.91663H4.48799C4.48837 7.80044 4.46437 7.68549 4.41757 7.57931C4.37076 7.47313 4.3022 7.37812 4.21638 7.30052C4.13057 7.22292 4.02944 7.16448 3.91963 7.12903C3.80982 7.09359 3.69382 7.08194 3.57923 7.09485C3.40461 7.13042 3.24376 7.21567 3.11574 7.3405C2.98772 7.46534 2.89789 7.62454 2.85688 7.79923C2.79069 8.0509 2.7524 8.30918 2.74271 8.56935C2.72451 8.88678 2.76318 9.20492 2.85688 9.50853C2.93352 9.76596 3.09876 9.98741 3.32291 10.1331C3.41324 10.1816 3.51416 10.2066 3.61651 10.2059C3.72283 10.2109 3.82905 10.1941 3.92875 10.1566C4.09709 10.0952 4.24184 9.98177 4.34229 9.83247C4.44274 9.68317 4.49374 9.50567 4.48799 9.32539H5.21033Z" fill="#3DAE2B"/>
<path d="M11.8953 6.39767V7.16075H10.0172V8.17976H11.7509V8.94519H10.0172V10.0886H11.9792V10.8517H9.27393V6.39062L11.8953 6.39767Z" fill="#3DAE2B"/>
<path d="M16.8396 7.16063H17.8509C18.1841 7.16063 18.3053 7.34377 18.3053 7.66075C18.3202 7.73403 18.3204 7.80956 18.306 7.88294C18.2916 7.95631 18.2629 8.02607 18.2214 8.08814C18.18 8.1502 18.1267 8.20334 18.0647 8.24445C18.0027 8.28556 17.9332 8.31381 17.8602 8.32756H16.8396V7.16063ZM16.0986 10.8516H16.8396V9.09064H17.7181C17.7779 9.08571 17.838 9.09391 17.8944 9.11467C17.9507 9.13543 18.0019 9.16826 18.0444 9.21089C18.087 9.25352 18.1198 9.30494 18.1407 9.36161C18.1616 9.41827 18.1701 9.47883 18.1655 9.5391C18.1655 9.86312 18.1655 10.2177 18.1655 10.4384C18.1725 10.5813 18.2065 10.7215 18.2657 10.8516H19.0626V10.6896C18.9834 10.6285 18.9228 10.5745 18.9228 10.3233C18.9228 10.0721 18.9088 9.50622 18.8878 9.32309C18.8762 9.19498 18.8336 9.0717 18.7637 8.96404C18.6939 8.85639 18.5989 8.76763 18.487 8.70558C18.6143 8.63047 18.724 8.52872 18.8088 8.4072C18.8936 8.28568 18.9516 8.14722 18.9787 8.00119C19.0413 7.70395 19.0292 7.39567 18.9437 7.10428C18.9067 6.90794 18.8034 6.73055 18.6513 6.60217C18.4993 6.4738 18.3079 6.40234 18.1095 6.3999H16.0986V10.8516Z" fill="#3DAE2B"/>
<path d="M25.7527 6.39746V7.16054H24.6948V10.8515H23.9515V7.16054H22.854V6.39746H25.7527Z" fill="#3DAE2B"/>
<path d="M30.3756 10.8517H29.6323V6.39062H30.3756V10.8517Z" fill="#3DAE2B"/>
<path d="M37.133 6.39767V7.16075H35.3341V8.17976H36.9V8.94519H35.3155V10.8517H34.5698V6.39062L37.133 6.39767Z" fill="#3DAE2B"/>
<path d="M41.7936 10.8517H41.0503V6.39062H41.7936V10.8517Z" fill="#3DAE2B"/>
<path d="M47.5138 5.13672H48.1359L47.5044 6.05241H47.1526L47.5138 5.13672ZM48.6439 6.39756V7.16064H46.7658V8.17965H48.4994V8.94508H46.7658V10.0885H48.7278V10.8516H46.0225V6.39052L48.6439 6.39756Z" fill="#3DAE2B"/>
<path d="M1.23242 3.04468H49.2056" stroke="#3DAE2B" stroke-width="2"/>
<path d="M1.19043 71.0764H49.3803" stroke="#3DAE2B" stroke-width="2"/>
<path d="M3.12935 58.4113L3.71654 60.1112H2.58409L3.12935 58.4113ZM3.64897 57.3665H2.6004L1.0625 61.7336H1.99456L2.30214 60.8602H3.93325L4.23617 61.7336H5.16823L3.64897 57.3665Z" fill="#3DAE2B"/>
<path d="M8.33458 59.3927H10.1032V61.7406H9.5579L9.44839 61.1912C9.28704 61.4229 9.06715 61.6069 8.8115 61.7242C8.55584 61.8414 8.27372 61.8876 7.99437 61.858C7.75337 61.8613 7.5144 61.8132 7.29314 61.7169C7.07188 61.6206 6.87331 61.4783 6.71046 61.2992C5.68519 60.3131 5.825 58.0826 7.30931 57.4416C7.57663 57.3339 7.86264 57.2812 8.15049 57.2866C8.67625 57.2436 9.19747 57.4125 9.59985 57.7562C9.74358 57.878 9.86204 58.0271 9.94842 58.1952C10.0348 58.3632 10.0874 58.5467 10.1032 58.7353H9.27129C9.11517 58.2164 8.66546 58.0192 8.19477 58.0192C7.91799 58.0128 7.64634 58.095 7.41882 58.254C6.86192 58.7236 6.83163 59.8271 7.07396 60.3225C7.1616 60.5297 7.30066 60.7106 7.47777 60.8479C7.65488 60.9853 7.86408 61.0744 8.08525 61.1067C8.27222 61.1245 8.46073 61.0974 8.6353 61.0276C8.80987 60.9578 8.96554 60.8473 9.08954 60.7052C9.16794 60.6272 9.23031 60.5343 9.27309 60.432C9.31587 60.3297 9.33822 60.2199 9.33887 60.1088H8.33224L8.33458 59.3927Z" fill="#3DAE2B"/>
<path d="M12.4336 58.1156H13.6593C14.0647 58.1156 14.2092 58.2964 14.2092 58.6063C14.2192 58.6854 14.213 58.7657 14.191 58.8423C14.1689 58.9189 14.1315 58.9901 14.0811 59.0515C14.0306 59.1129 13.9682 59.1632 13.8976 59.1993C13.8271 59.2354 13.7499 59.2565 13.6709 59.2614H12.4336V58.1156ZM11.5225 61.7337H12.4336V60.008H13.4985C13.813 60.008 14.0297 60.1536 14.0414 60.4471C14.053 60.7406 14.0297 61.1115 14.0414 61.3252C14.0527 61.4685 14.094 61.6077 14.1626 61.7337H15.1366V61.5717C15.0387 61.513 14.9665 61.459 14.9665 61.2125C14.9665 60.966 14.9478 60.4165 14.9245 60.2358C14.9011 60.1013 14.8438 59.9752 14.7582 59.8696C14.6725 59.7639 14.5612 59.6822 14.4352 59.6323C14.5797 59.5694 14.7084 59.4748 14.812 59.3554C14.9156 59.2359 14.9915 59.0947 15.034 58.942C15.1116 58.6513 15.097 58.3434 14.9921 58.0616C14.8639 57.592 14.4166 57.3854 13.9738 57.3572H11.5132L11.5225 61.7337Z" fill="#3DAE2B"/>
<path d="M17.206 61.7337H16.2949V57.3689H17.206V61.7337Z" fill="#3DAE2B"/>
<path d="M22.267 60.2404C22.2572 60.4712 22.1992 60.6974 22.0968 60.9041C21.9944 61.1108 21.85 61.2935 21.6728 61.4402C21.2889 61.7065 20.8362 61.8542 20.3702 61.8651C19.3869 61.8957 18.7018 61.2735 18.4642 60.3531C18.4075 60.1019 18.3794 59.8452 18.3803 59.5876C18.3757 59.3048 18.4102 59.0227 18.4828 58.7494C18.7321 57.9347 19.2611 57.296 20.4075 57.296C20.8288 57.279 21.2444 57.3983 21.5936 57.6365C21.7998 57.7624 21.9701 57.94 22.0881 58.1518C22.2061 58.3637 22.2677 58.6027 22.267 58.8457H21.4002C21.3769 58.5992 21.1671 57.984 20.284 58.0497C20.0864 58.0712 19.8989 58.1488 19.7433 58.2735C19.5878 58.3982 19.4707 58.5649 19.4056 58.7541C19.3244 58.9984 19.2773 59.2528 19.2657 59.5101C19.2439 59.8221 19.2917 60.135 19.4056 60.4259C19.5152 60.6924 19.7184 60.9088 19.9764 61.034C20.089 61.0828 20.2104 61.1075 20.3329 61.1067C20.4619 61.1106 20.5908 61.0947 20.7151 61.0598C20.9035 61.024 21.0742 60.9244 21.1988 60.7775C21.3234 60.6306 21.3944 60.4453 21.4002 60.2521L22.267 60.2404Z" fill="#3DAE2B"/>
<path d="M26.969 57.3689V60.3766C26.9814 60.6548 26.9081 60.93 26.7591 61.1645C26.6102 61.3991 26.393 61.5815 26.1371 61.6868C25.8516 61.8068 25.5448 61.8675 25.2354 61.8652C24.9451 61.8665 24.6567 61.818 24.3825 61.722C23.6485 61.3205 23.4668 60.8063 23.4668 60.3766V57.3689H24.3756V60.3883C24.3872 60.6631 24.4734 61.0927 25.2121 61.0927C25.9507 61.0927 26.0603 60.6677 26.0603 60.3883V57.3689H26.969Z" fill="#3DAE2B"/>
<path d="M29.2971 57.3689V60.98H31.4105V61.729H28.3813V57.3689H29.2971Z" fill="#3DAE2B"/>
<path d="M35.2968 57.3665V58.1154H34.0059V61.7336H33.0972V58.1154H31.7573V57.3665H35.2968Z" fill="#3DAE2B"/>
<path d="M39.8479 57.3689V60.3766C39.8604 60.6545 39.7875 60.9295 39.639 61.164C39.4905 61.3985 39.2738 61.5811 39.0184 61.6868C38.7319 61.8067 38.4245 61.8673 38.1143 61.8652C37.824 61.8665 37.5356 61.818 37.2615 61.722C36.5275 61.3205 36.3457 60.8063 36.3457 60.3766V57.3689H37.2545V60.3883C37.2684 60.6631 37.3523 61.0927 38.091 61.0927C38.8296 61.0927 38.9392 60.6678 38.9392 60.3883V57.3689H39.8479Z" fill="#3DAE2B"/>
<path d="M42.1754 58.1156H43.4034C43.8065 58.1156 43.9533 58.2964 43.9533 58.6063C43.963 58.6853 43.9565 58.7655 43.9343 58.8419C43.9122 58.9184 43.8747 58.9895 43.8243 59.0508C43.7739 59.1121 43.7116 59.1624 43.6412 59.1987C43.5709 59.2349 43.4939 59.2562 43.415 59.2614H42.1754V58.1156ZM41.2666 61.7337H42.1754V60.008H43.2402C43.5548 60.008 43.7738 60.1536 43.7855 60.4471C43.7971 60.7406 43.7738 61.1115 43.7855 61.3252C43.7943 61.4689 43.8357 61.6087 43.9067 61.7337H44.8783V61.5717C44.7828 61.513 44.7106 61.459 44.7106 61.2125C44.7106 60.966 44.6919 60.4165 44.6663 60.2358C44.6433 60.1012 44.5862 59.9749 44.5005 59.8691C44.4147 59.7634 44.3033 59.6818 44.177 59.6323C44.3217 59.5694 44.4508 59.4748 44.5547 59.3554C44.6587 59.236 44.735 59.0948 44.7781 58.942C44.8539 58.651 44.8384 58.3434 44.7339 58.0616C44.608 57.592 44.1583 57.3854 43.7179 57.3572H41.2666V61.7337Z" fill="#3DAE2B"/>
<path d="M49.3502 57.3665V58.1155H47.0596V59.1134H49.1731V59.8624H47.0596V60.98H49.4527V61.729H46.1509V57.3618L49.3502 57.3665Z" fill="#3DAE2B"/>
<path d="M2.55134 65.3545H3.63253C3.94943 65.3545 4.19875 65.4742 4.19875 65.8522C4.19875 66.2302 3.96574 66.3523 3.58359 66.3523H2.55134V65.3545ZM1.64258 68.9703H3.63952C4.02021 68.991 4.39724 68.8863 4.71371 68.6721C4.85592 68.5647 4.97185 68.4259 5.05263 68.2663C5.1334 68.1068 5.17688 67.9308 5.17974 67.7517C5.18211 67.5397 5.13581 67.33 5.04446 67.139C4.95311 66.9479 4.81918 66.7808 4.65313 66.6505C4.78362 66.5404 4.88858 66.4029 4.96064 66.2475C5.0327 66.0921 5.07011 65.9228 5.07023 65.7513C5.07023 65.5705 4.98634 64.6055 3.47641 64.6055H1.64957L1.64258 68.9703ZM2.55134 67.0919H3.79098C3.86061 67.0814 3.93173 67.0873 3.99867 67.1094C4.06561 67.1314 4.12652 67.1689 4.17654 67.2188C4.22655 67.2687 4.2643 67.3298 4.28677 67.397C4.30924 67.4643 4.3158 67.5359 4.30594 67.6061C4.30594 68.2025 3.8935 68.2166 3.62087 68.2166H2.55134V67.0919Z" fill="#3DAE2B"/>
<path d="M7.91999 68.9632H7.01123V64.6055H7.91999V68.9632Z" fill="#3DAE2B"/>
<path d="M11.7973 68.3175C11.4997 68.3263 11.2095 68.2225 10.9841 68.0264C10.6986 67.6896 10.5417 67.2612 10.5417 66.8183C10.5417 66.3754 10.6986 65.947 10.9841 65.6103C11.2133 65.4186 11.5018 65.3137 11.7997 65.3137C12.0975 65.3137 12.386 65.4186 12.6152 65.6103C12.9026 65.9462 13.0606 66.3749 13.0606 66.8183C13.0606 67.2618 12.9026 67.6905 12.6152 68.0264C12.3891 68.2244 12.0967 68.3285 11.7973 68.3175ZM13.9248 66.8172C13.9332 66.1746 13.6992 65.5527 13.27 65.0773C12.8583 64.7256 12.336 64.5325 11.7962 64.5325C11.2564 64.5325 10.7341 64.7256 10.3224 65.0773C9.90073 65.5573 9.66797 66.1762 9.66797 66.8172C9.66797 67.4582 9.90073 68.077 10.3224 68.557C10.7341 68.9088 11.2564 69.1018 11.7962 69.1018C12.336 69.1018 12.8583 68.9088 13.27 68.557C13.6992 68.0816 13.9332 67.4598 13.9248 66.8172Z" fill="#3DAE2B"/>
<path d="M16.6487 64.6055V68.2236H18.7621V68.9632H15.7329V64.6055H16.6487Z" fill="#3DAE2B"/>
<path d="M22.4321 68.3175C22.1345 68.3263 21.8443 68.2225 21.6189 68.0264C21.3334 67.6896 21.1765 67.2612 21.1765 66.8183C21.1765 66.3754 21.3334 65.947 21.6189 65.6103C21.8485 65.4195 22.1368 65.3151 22.4345 65.3151C22.7321 65.3151 23.0204 65.4195 23.25 65.6103C23.5356 65.947 23.6925 66.3754 23.6925 66.8183C23.6925 67.2612 23.5356 67.6896 23.25 68.0264C23.0234 68.2236 22.7314 68.3275 22.4321 68.3175ZM24.5619 66.8172C24.5703 66.1746 24.3363 65.5527 23.9071 65.0773C23.4954 64.7256 22.9731 64.5325 22.4333 64.5325C21.8935 64.5325 21.3712 64.7256 20.9595 65.0773C20.5364 65.5566 20.3027 66.1757 20.3027 66.8172C20.3027 67.4586 20.5364 68.0777 20.9595 68.557C21.3712 68.9088 21.8935 69.1018 22.4333 69.1018C22.9731 69.1018 23.4954 68.9088 23.9071 68.557C24.3363 68.0816 24.5703 67.4598 24.5619 66.8172Z" fill="#3DAE2B"/>
<path d="M28.4277 66.6293H30.1962V68.9773H29.651L29.5415 68.4255C29.381 68.6581 29.1612 68.8428 28.9054 68.9602C28.6495 69.0775 28.3669 69.1232 28.0874 69.0923C27.8464 69.0956 27.6075 69.0475 27.3862 68.9512C27.165 68.8549 26.9664 68.7126 26.8035 68.5335C25.7783 67.5474 25.9181 65.3168 27.4047 64.6782C27.672 64.5703 27.958 64.5176 28.2459 64.5233C28.7709 64.4809 29.2911 64.6497 29.6929 64.9928C29.8368 65.115 29.9554 65.2645 30.0418 65.433C30.1281 65.6014 30.1806 65.7853 30.1962 65.9743H29.3667C29.2083 65.453 28.7609 65.2558 28.2878 65.2558C28.0097 65.2522 27.7377 65.3386 27.5119 65.5023C26.955 65.9719 26.9247 67.0731 27.167 67.5709C27.2554 67.7773 27.3947 67.9576 27.5717 68.0944C27.7487 68.2313 27.9576 68.3202 28.1783 68.3527C28.3654 68.3704 28.554 68.3435 28.7289 68.2742C28.9038 68.2049 29.06 68.095 29.185 67.9536C29.3415 67.7938 29.4308 67.5794 29.4343 67.3549H28.4277V66.6293Z" fill="#3DAE2B"/>
<path d="M32.9996 68.9632H32.0908V64.6055H32.9996V68.9632Z" fill="#3DAE2B"/>
<path d="M37.4012 68.2094C37.2426 68.2851 37.0686 68.3221 36.8932 68.3174C36.5963 68.3262 36.3069 68.2223 36.0823 68.0263C35.7968 67.6896 35.6399 67.2612 35.6399 66.8183C35.6399 66.3754 35.7968 65.947 36.0823 65.6103C36.3113 65.4181 36.5999 65.3129 36.8979 65.3129C37.1958 65.3129 37.4844 65.4181 37.7134 65.6103C37.8624 65.7721 37.9783 65.9621 38.0543 66.1692C38.1302 66.3763 38.1649 66.5965 38.1561 66.8171C38.1575 67.1449 38.0774 67.4677 37.9231 67.7563L37.4268 67.2867L36.9608 67.7774L37.4012 68.2094ZM38.5406 68.355C38.8511 67.9038 39.014 67.3661 39.0067 66.8171C39.0148 66.175 38.7817 65.5535 38.3542 65.0773C37.9434 64.7254 37.4219 64.5322 36.8827 64.5322C36.3436 64.5322 35.822 64.7254 35.4112 65.0773C34.9896 65.5573 34.7568 66.1761 34.7568 66.8171C34.7568 67.4581 34.9896 68.077 35.4112 68.5569C35.6083 68.7414 35.8397 68.8845 36.0921 68.978C36.3445 69.0715 36.6129 69.1136 36.8816 69.1017C37.2845 69.1103 37.6823 69.0089 38.0326 68.8082L38.5406 69.2778L39.0067 68.7941L38.5406 68.355Z" fill="#3DAE2B"/>
<path d="M44.2889 64.6055V67.6132C44.3022 67.8912 44.2295 68.1665 44.0809 68.4012C43.9323 68.6358 43.7152 68.8182 43.4594 68.9233C43.1739 69.044 42.8672 69.1054 42.5576 69.1041C42.2671 69.1064 41.9784 69.0571 41.7048 68.9585C40.9708 68.5594 40.7891 68.0452 40.7891 67.6132V64.6055H41.6978V67.6273C41.7095 67.902 41.7957 68.3316 42.5343 68.3316C43.273 68.3316 43.3802 67.909 43.3802 67.6273V64.6055H44.2889Z" fill="#3DAE2B"/>
<path d="M49.4947 64.6055V65.3545H47.2042V66.3523H49.3199V67.099H47.2042V68.2236H49.5996V68.9632H46.2954V64.6055H49.4947Z" fill="#3DAE2B"/>
<path d="M49.3199 11.8799H1.17432V55.2581H49.3199V11.8799Z" fill="#3DAE2B"/>
<path d="M29.6768 28.7146H30.5739C33.6031 28.7146 36.0893 29.3626 36.0893 33.1757C36.0893 37.0568 33.5728 37.7048 30.497 37.7048H29.6768V28.7146ZM29.6768 40.3932H31.676C34.5794 40.3932 38.3076 41.1845 38.3076 44.9999C38.3076 48.8529 35.1666 49.7874 32.163 49.7874H29.6768V40.3932ZM26.4146 52.781H32.4986C37.0913 52.781 41.5512 50.6444 41.5512 45.2159C41.5512 42.0485 39.4051 38.9211 36.3317 38.3458V38.2731C38.077 37.4114 39.1092 35.1127 39.1092 33.1358C39.1092 27.0311 34.4932 25.7209 29.5975 25.7209H26.4285L26.4146 52.781Z" fill="#F9F9F9"/>
<path d="M23.11 26.5124C22.8323 26.2384 22.5015 26.025 22.1383 25.8857C21.775 25.7463 21.3872 25.6839 20.9989 25.7024C18.0583 25.7517 13.857 29.9287 10.9956 34.0423C8.63748 37.4327 4.68555 44.3732 4.68555 52.7483H8.06426C8.06982 50.5849 8.34857 48.431 8.8938 46.3385H20.6168V52.807H23.9955C23.9955 52.807 23.9955 29.6047 23.9955 29.5319C24.0165 28.8134 24.0444 27.461 23.11 26.5124ZM9.95402 43.0513C12.9296 35.3947 18.5756 30.0226 20.6261 29.2149C20.6261 29.3065 20.6261 43.0513 20.6261 43.0513H9.95402Z" fill="#F9F9F9"/>
<path d="M36.1127 24.2349C37.0448 19.4803 34.2486 15.0779 31.1518 13.8452C28.7844 17.4446 30.4342 25.6718 37.8324 25.6718C42.1711 25.6718 45.0279 21.7977 45.1444 20.45C40.7847 19.4404 36.4926 23.1595 36.1127 24.2349Z" fill="#F9F9F9"/>
<g clip-path="url(#clip1_2_130567)">
<path d="M63 16.4114V57.3432H126.894V16.4114H63ZM105.134 27.0707C105.518 27.0963 105.904 27.0963 106.288 27.0707C106.372 27.0654 106.451 27.0344 106.515 26.9822C106.579 26.9299 106.624 26.8593 106.643 26.7807C106.785 26.3032 106.838 26.0644 106.98 25.5528C106.98 25.3822 107.104 25.3652 107.158 25.5528C107.317 26.0303 107.388 26.2691 107.548 26.7126C107.579 26.7829 107.631 26.843 107.697 26.8854C107.763 26.9278 107.841 26.9507 107.921 26.9513C108.347 26.9513 108.613 26.9513 109.145 26.9513C109.305 26.9513 109.341 26.9513 109.145 27.1219L108.169 27.804C108.108 27.86 108.065 27.9309 108.043 28.0091C108.021 28.0873 108.022 28.1697 108.045 28.2475C108.205 28.6568 108.276 28.8444 108.453 29.2366C108.453 29.3731 108.453 29.4243 108.311 29.356L107.335 28.8273C107.269 28.7862 107.192 28.7644 107.113 28.7644C107.034 28.7644 106.957 28.7862 106.891 28.8273L106.004 29.5095C105.897 29.5948 105.826 29.5096 105.862 29.4243C105.968 29.032 106.039 28.8103 106.164 28.3839C106.179 28.3107 106.172 28.2349 106.143 28.1654C106.115 28.0959 106.067 28.0357 106.004 27.9917C105.613 27.7188 105.418 27.5653 105.045 27.2583C104.673 26.9513 104.992 27.0536 105.134 27.0707ZM96.7748 25.5187L98.0882 25.8768C98.1612 25.9053 98.243 25.9053 98.316 25.8766C98.389 25.8479 98.4473 25.7929 98.4786 25.7233L98.8514 24.7C98.8514 24.5636 98.9933 24.5807 99.0466 24.7L99.4903 25.9621C99.5213 26.0519 99.5747 26.133 99.6459 26.1984C99.7171 26.2638 99.8038 26.3116 99.8985 26.3373L101.212 26.7126C101.372 26.7126 101.407 26.8319 101.212 26.9001L100.147 27.2924C100.081 27.3284 100.03 27.386 100.004 27.4548C99.9778 27.5236 99.9782 27.5991 100.005 27.6676L100.395 28.8614C100.395 29.0149 100.395 29.049 100.253 28.8614L99.2418 27.8723C99.1778 27.8104 99.0993 27.7641 99.0128 27.7374C98.9263 27.7107 98.8344 27.7043 98.7448 27.7188L97.7687 28.0258C97.6445 28.0258 97.5735 28.0257 97.6268 27.8893C97.68 27.7529 97.822 27.3436 97.9462 26.9684C97.9616 26.8875 97.9549 26.8042 97.9269 26.7265C97.8989 26.6488 97.8506 26.5794 97.7865 26.5249C97.3428 26.1327 97.1298 25.9451 96.6683 25.5699C96.5796 25.5187 96.5973 25.4675 96.7748 25.5187ZM87.812 26.1497H89.5868C89.6797 26.1598 89.7735 26.1402 89.8537 26.094C89.9339 26.0477 89.996 25.9774 90.0305 25.8939C90.0305 25.4505 90.137 25.2288 90.1903 24.7853C90.1903 24.6489 90.3322 24.6489 90.4387 24.7853L91.2906 25.9451C91.4333 26.1093 91.6371 26.2133 91.8586 26.235C92.5153 26.235 92.746 26.3373 93.5092 26.4567C93.7221 26.4567 93.7754 26.5761 93.6156 26.6443C93.1719 26.849 92.9412 26.9172 92.4797 27.1389C92.4447 27.1613 92.4146 27.19 92.3912 27.2236C92.3678 27.2571 92.3515 27.2948 92.3433 27.3344C92.3351 27.374 92.335 27.4148 92.3432 27.4544C92.3514 27.494 92.3676 27.5317 92.391 27.5653C92.7105 28.0258 92.8702 28.2816 93.1542 28.7762C93.2607 28.9467 93.1542 28.9808 92.9944 28.7762C92.5344 28.4592 92.0476 28.1796 91.5391 27.9405C91.4436 27.8912 91.3369 27.8655 91.2285 27.8655C91.1201 27.8655 91.0134 27.8912 90.9179 27.9405C90.4742 28.1792 90.2612 28.3498 89.7998 28.6056C89.6578 28.6056 89.5513 28.6056 89.5868 28.4862L89.7643 27.3777C89.7543 27.286 89.7196 27.1985 89.6636 27.1237C89.6075 27.0489 89.5321 26.9894 89.4448 26.9513L87.8652 26.2862C87.5813 26.218 87.599 26.1497 87.812 26.1497ZM81.2629 30.5499C82.0793 30.3964 82.3278 30.3452 83.0377 30.2429C83.1421 30.2326 83.2427 30.1996 83.3319 30.1464C83.4211 30.0932 83.4964 30.0212 83.5524 29.9359C83.7299 29.4754 83.8009 29.2537 83.9784 28.8103C83.9784 28.6738 84.1381 28.6568 84.2268 28.8103L84.8835 29.8677C84.9445 29.9523 85.0272 30.0203 85.1236 30.0651C85.22 30.11 85.3268 30.1301 85.4337 30.1235C86.1436 30.1235 86.3211 30.0382 87.0488 30.0041C87.2618 30.0041 87.2973 30.0041 87.1376 30.1576C86.5874 30.5158 86.4099 30.6693 85.9129 30.9421C85.8336 30.9791 85.7724 31.0444 85.7426 31.124C85.7127 31.2037 85.7166 31.2915 85.7532 31.3685L86.3389 32.4601C86.4276 32.6135 86.3389 32.6647 86.1614 32.5624C85.7069 32.3113 85.2389 32.0836 84.7593 31.8802C84.6553 31.8384 84.5437 31.8169 84.431 31.8169C84.3182 31.8169 84.2066 31.8384 84.1026 31.8802L82.6827 32.7329C82.4875 32.8353 82.3988 32.8352 82.4698 32.6476C82.7005 32.0848 82.7715 31.9484 82.9667 31.4879C82.9667 31.3515 82.9667 31.1639 82.7005 31.1127C82.188 30.9539 81.6665 30.823 81.1387 30.7204C80.9789 30.6863 81.0144 30.6011 81.2629 30.5499ZM77.7133 36.485C78.4409 36.485 78.8137 36.485 79.4881 36.485C79.603 36.4829 79.7161 36.4575 79.8201 36.4105C79.9241 36.3634 80.0166 36.2958 80.0915 36.2121L80.9434 35.0865C81.0676 34.95 81.1742 34.95 81.1919 35.0865C81.1919 35.547 81.2806 35.7857 81.3339 36.2633C81.3339 36.4168 81.5469 36.5532 81.7421 36.5873C82.4343 36.6726 82.5585 36.6897 83.2685 36.8261C83.4459 36.8261 83.4637 36.9284 83.2685 36.9967C82.7005 37.1843 82.4165 37.2695 81.8308 37.4912C81.7355 37.5251 81.6511 37.5823 81.5858 37.657C81.5204 37.7318 81.4764 37.8216 81.4581 37.9176C81.4581 38.3951 81.4581 38.6339 81.4581 39.1285C81.4581 39.282 81.3516 39.3332 81.2274 39.2138C81.1031 39.0944 80.6772 38.7021 80.269 38.3781C80.1731 38.3303 80.0665 38.3053 79.9584 38.3053C79.8503 38.3053 79.7438 38.3303 79.6478 38.3781C78.9911 38.651 78.6539 38.7874 77.9972 39.0944C77.7843 39.1967 77.6955 39.0944 77.8375 38.9921L78.8137 37.8153C78.8448 37.7866 78.8696 37.7522 78.8865 37.7141C78.9034 37.676 78.9121 37.635 78.9121 37.5935C78.9121 37.5521 78.9034 37.5111 78.8865 37.473C78.8696 37.4349 78.8448 37.4005 78.8137 37.3719C78.3344 37.099 78.086 36.9796 77.589 36.7408C77.4293 36.5873 77.5003 36.502 77.7487 36.485H77.7133ZM78.1392 47.5877L76.7194 47.3319C76.4887 47.3319 76.2934 47.5536 76.0626 47.7583C75.4947 48.3382 75.3172 48.5258 74.7493 49.0715C74.5718 49.2591 74.4831 49.2421 74.5541 49.0715C74.7671 48.4234 74.8381 48.1846 74.9978 47.5536C74.9978 47.3319 75.1752 47.0931 74.7848 47.0249L73.8797 46.8544C73.5069 46.8544 73.5957 46.6497 73.7909 46.5303L75.2995 45.5411C75.5812 45.3774 75.7851 45.1142 75.8674 44.8078C76.0982 44.1426 76.2047 43.6822 76.4354 42.9317C76.4354 42.71 76.6661 42.693 76.7194 42.9317C76.8969 43.4434 77.0211 43.7504 77.234 44.2962C77.234 44.4667 77.5713 44.4667 77.9262 44.1938C80.887 41.8136 84.0785 39.7119 87.457 37.9176C91.5093 35.7071 95.891 34.108 100.449 33.1763C100.786 33.1763 100.75 33.2957 100.449 33.364C95.8216 34.4807 91.3946 36.257 87.3151 38.6339C83.9557 40.5841 80.8564 42.9208 78.086 45.5923C78.0005 45.6867 77.9438 45.8019 77.9219 45.9252C77.8999 46.0485 77.9137 46.1753 77.9617 46.2916C78.1569 46.8373 78.1215 46.752 78.3877 47.4001C78.5297 47.5024 78.5297 47.656 78.1392 47.5877ZM89.6401 44.3985C89.1609 44.6714 88.8946 44.8419 88.3799 45.183C88.2927 45.2446 88.225 45.3282 88.1843 45.4245C88.1436 45.5209 88.1315 45.6262 88.1492 45.7288C88.2735 46.2916 88.3444 46.5815 88.4687 47.1784C88.4687 47.3831 88.4686 47.4513 88.2734 47.3319C87.8297 46.9567 87.599 46.7861 87.1553 46.445C87.0714 46.3828 86.9684 46.3491 86.8625 46.3491C86.7565 46.3491 86.6535 46.3828 86.5696 46.445L85.2385 47.4513C85.061 47.5877 84.99 47.5366 85.061 47.3319C85.3272 46.718 85.4515 46.411 85.6822 45.8311C85.7252 45.7422 85.7364 45.6421 85.7139 45.5464C85.6915 45.4507 85.6366 45.3649 85.5579 45.3024C85.0965 45.0125 84.8658 44.8589 84.3866 44.5861C84.2268 44.5008 84.2623 44.3985 84.3866 44.3814L85.9307 44.2279C86.04 44.2121 86.1438 44.1713 86.2333 44.1089C86.3229 44.0466 86.3956 43.9646 86.4454 43.8698C86.6761 43.324 86.7826 43.0511 87.0133 42.5224C87.0133 42.3689 87.1908 42.3519 87.2263 42.5224C87.386 43.0341 87.4393 43.2899 87.5813 43.8186C87.6138 43.9072 87.6738 43.984 87.7531 44.0389C87.8324 44.0938 87.9273 44.124 88.025 44.1256C88.5209 44.0828 89.0199 44.0828 89.5158 44.1256C89.8175 44.2109 89.8353 44.3132 89.6755 44.3985H89.6401ZM97.68 45.2683L96.5973 45.6264C96.5608 45.6428 96.5282 45.6661 96.5012 45.6948C96.4742 45.7236 96.4535 45.7572 96.4403 45.7938C96.427 45.8303 96.4215 45.8691 96.4241 45.9077C96.4267 45.9463 96.4374 45.984 96.4554 46.0187C96.6506 46.5303 96.7393 46.7861 96.9523 47.2978C96.9523 47.4683 96.9523 47.4854 96.7748 47.2978L95.6212 46.2745C95.5518 46.2098 95.4671 46.1621 95.3744 46.1354C95.2818 46.1086 95.1838 46.1037 95.0887 46.121L93.9706 46.6156C93.8109 46.6156 93.7399 46.6156 93.7931 46.445L94.2191 45.3365C94.2403 45.2452 94.2368 45.1502 94.2088 45.0606C94.1808 44.971 94.1294 44.8898 94.0593 44.8249L92.9412 43.7504C92.7992 43.614 92.8347 43.5457 92.9412 43.5969L94.3078 44.0062C94.3438 44.0235 94.3831 44.0337 94.4233 44.0362C94.4635 44.0387 94.5038 44.0334 94.5419 44.0207C94.5799 44.008 94.6149 43.9881 94.6449 43.9622C94.6748 43.9362 94.6989 43.9048 94.716 43.8698C94.8758 43.4605 94.9468 43.2558 95.1065 42.8635C95.1065 42.7271 95.2485 42.7612 95.3017 42.8635C95.4615 43.3751 95.5502 43.631 95.7454 44.1426C95.782 44.2341 95.8391 44.3168 95.9128 44.3846C95.9864 44.4524 96.0747 44.5037 96.1714 44.5349L97.538 44.9783C97.8219 45.1489 97.8575 45.2171 97.6622 45.2683H97.68ZM104.886 43.2217L103.714 43.6651C103.678 43.6811 103.645 43.7045 103.618 43.7336C103.591 43.7628 103.572 43.7971 103.56 43.8342C103.548 43.8714 103.545 43.9105 103.55 43.949C103.555 43.9874 103.569 44.0244 103.59 44.0574C103.839 44.552 103.963 44.7907 104.229 45.2853C104.229 45.4388 104.229 45.4729 104.052 45.2853C103.584 44.9797 103.14 44.6435 102.72 44.2791C102.647 44.2077 102.558 44.1525 102.46 44.1172C102.362 44.0819 102.257 44.0673 102.153 44.0744L101.034 44.4326C100.892 44.4326 100.821 44.4326 100.857 44.262C100.981 43.8356 101.052 43.631 101.194 43.2217C101.201 43.1265 101.186 43.031 101.149 42.9424C101.112 42.8537 101.055 42.7743 100.981 42.71L99.7565 41.5332C99.5968 41.3797 99.6145 41.3115 99.7565 41.3797L101.212 41.9426C101.389 41.9426 101.585 41.9426 101.62 41.8232L101.975 40.8169C101.975 40.6805 102.117 40.7146 102.188 40.8169L102.738 42.1472C102.785 42.243 102.852 42.3286 102.934 42.399C103.017 42.4693 103.113 42.5229 103.217 42.5565C103.721 42.7179 104.237 42.8378 104.762 42.9147C105.028 43.0853 105.063 43.1705 104.921 43.2217H104.886ZM109.589 38.6168C109.128 38.9238 108.897 39.0774 108.453 39.3332C108.388 39.3744 108.339 39.4352 108.313 39.5061C108.287 39.5771 108.287 39.6541 108.311 39.7254C108.506 40.1006 108.613 40.3053 108.826 40.6805C109.039 41.0557 108.826 40.834 108.666 40.6805C108.27 40.4848 107.884 40.2684 107.512 40.0324C107.432 39.996 107.344 39.9771 107.255 39.9771C107.166 39.9771 107.078 39.996 106.998 40.0324L105.968 40.4588C105.844 40.4588 105.773 40.4588 105.809 40.3394C105.844 40.22 106.004 39.8107 106.146 39.4525C106.158 39.3752 106.148 39.2962 106.117 39.224C106.086 39.1518 106.034 39.0892 105.968 39.0432C105.525 38.7021 105.312 38.5145 104.886 38.1564C104.744 38.037 104.779 37.9688 104.886 38.0199C105.4 38.1393 105.649 38.1905 106.181 38.2758C106.263 38.2905 106.348 38.2783 106.422 38.2412C106.496 38.2041 106.555 38.1442 106.59 38.0711C106.732 37.6618 106.803 37.4401 106.962 36.9967C106.962 36.8602 107.087 36.8602 107.158 36.9967L107.601 38.1564C107.642 38.2381 107.704 38.308 107.782 38.359C107.86 38.4099 107.951 38.44 108.045 38.4463C108.518 38.4804 108.992 38.4804 109.465 38.4463C109.731 38.4463 109.766 38.5316 109.624 38.6168H109.589ZM113.405 31.6585L112.304 32.7329C112.238 32.7936 112.187 32.8684 112.157 32.9514C112.126 33.0343 112.116 33.1231 112.127 33.2105C112.269 33.5686 112.358 33.7562 112.517 34.1144C112.677 34.4725 112.517 34.302 112.358 34.2679C112.001 34.1916 111.651 34.089 111.311 33.9609C111.221 33.9478 111.13 33.9548 111.043 33.9814C110.957 34.0081 110.878 34.0536 110.814 34.1144L109.784 34.9841C109.66 35.1035 109.589 35.0694 109.642 34.9841C109.784 34.5407 109.891 34.302 110.068 33.8415C110.096 33.7705 110.097 33.6923 110.071 33.6206C110.045 33.5489 109.994 33.4883 109.926 33.4492C109.596 33.3044 109.276 33.1392 108.968 32.9546C108.861 32.9546 108.879 32.8182 108.968 32.7841C109.447 32.7841 109.696 32.6647 110.192 32.5624C110.286 32.5341 110.371 32.4855 110.442 32.4204C110.513 32.3554 110.567 32.2756 110.601 32.1872C110.778 31.7096 110.867 31.4538 111.044 30.9421C111.044 30.7716 111.186 30.7545 111.24 30.9421C111.364 31.3685 111.435 31.5732 111.559 31.9654C111.574 31.9999 111.597 32.031 111.625 32.0568C111.653 32.0826 111.687 32.1025 111.723 32.1153C111.76 32.1281 111.799 32.1335 111.838 32.1312C111.877 32.1289 111.915 32.1189 111.95 32.1019C112.396 31.9652 112.834 31.8058 113.263 31.6243C113.636 31.4538 113.636 31.522 113.44 31.6585H113.405ZM113.316 26.3714L114.576 26.0133C114.754 25.9471 114.9 25.8193 114.984 25.6551C115.162 25.2117 115.268 24.99 115.446 24.5295C115.446 24.376 115.588 24.3589 115.623 24.5295C115.73 24.9047 115.783 25.0753 115.907 25.4334C115.947 25.4898 116.006 25.531 116.074 25.5497C116.143 25.5684 116.215 25.5635 116.28 25.5358L117.487 25.1606C117.647 25.1606 117.664 25.1605 117.487 25.2629L116.475 26.1326C116.351 26.252 116.262 26.4397 116.316 26.542C116.369 26.6443 116.529 26.9854 116.688 27.2753C116.848 27.5653 116.688 27.4288 116.529 27.4118L115.517 27.2583C115.426 27.2511 115.335 27.2625 115.249 27.2919C115.164 27.3214 115.085 27.368 115.02 27.4288L113.92 28.3839C113.778 28.5203 113.707 28.5033 113.778 28.3839C113.973 27.9575 114.062 27.7188 114.257 27.2924C114.275 27.2627 114.285 27.2296 114.289 27.1955C114.292 27.1613 114.288 27.1269 114.276 27.0945C114.264 27.0622 114.245 27.0326 114.22 27.0079C114.196 26.9832 114.166 26.9639 114.133 26.9513C113.806 26.8635 113.486 26.7553 113.174 26.6272C113.156 26.4908 113.174 26.4226 113.352 26.3714H113.316Z" fill="#3DAE2B"/>
</g>
</g>
<defs>
<clipPath id="clip0_2_130567">
<rect width="127" height="72" fill="white" transform="translate(0 0.911377)"/>
</clipPath>
<clipPath id="clip1_2_130567">
<rect width="64" height="41" fill="white" transform="translate(63 16.4114)"/>
</clipPath>
</defs>
</svg>
