<svg width="32" height="31" viewBox="0 0 32 31" fill="none" xmlns="http://www.w3.org/2000/svg">
<path d="M15.9239 11.2661C13.3162 11.2661 11.1948 13.2697 11.1948 15.7325C11.1948 18.1952 13.3162 20.1988 15.9239 20.1988C18.5315 20.1988 20.653 18.1952 20.653 15.7325C20.653 13.2697 18.5315 11.2661 15.9239 11.2661ZM15.9239 18.4123C14.3593 18.4123 13.0865 17.2101 13.0865 15.7325C13.0865 14.2548 14.3593 13.0526 15.9239 13.0526C17.4885 13.0526 18.7613 14.2548 18.7613 15.7325C18.7613 17.2101 17.4885 18.4123 15.9239 18.4123Z" fill="#F9F9F9"/>
<path d="M27.186 15.2538C26.3004 13.8296 21.7935 7.58789 15.9237 7.58789C10.0552 7.58789 5.54713 13.8295 4.66139 15.2538L4.36377 15.7324L4.66139 16.211C5.54704 17.6352 10.0539 23.8769 15.9237 23.8769C21.7922 23.8769 26.3003 17.6353 27.186 16.211L27.4837 15.7324L27.186 15.2538ZM15.9237 22.067C11.3704 22.067 7.62123 17.2819 6.52638 15.7317C7.6192 14.1801 11.3587 9.39778 15.9237 9.39778C20.4767 9.39778 24.2257 14.1822 25.321 15.7331C24.2282 17.2847 20.4887 22.067 15.9237 22.067Z" fill="#F9F9F9"/>
</svg>
